<svg xmlns="http://www.w3.org/2000/svg" xmlns:xlink="http://www.w3.org/1999/xlink" preserveAspectRatio="xMidYMid" viewBox="0 0 44 44">
  <path d="M43.827,40.291 C43.827,40.291 40.291,43.827 40.291,43.827 C40.291,43.827 21.906,25.442 21.906,25.442 C21.906,25.442 3.521,43.827 3.521,43.827 C3.521,43.827 -0.014,40.291 -0.014,40.291 C-0.014,40.291 18.371,21.906 18.371,21.906 C18.371,21.906 -0.014,3.521 -0.014,3.521 C-0.014,3.521 3.521,-0.014 3.521,-0.014 C3.521,-0.014 21.906,18.371 21.906,18.371 C21.906,18.371 40.291,-0.014 40.291,-0.014 C40.291,-0.014 43.827,3.521 43.827,3.521 C43.827,3.521 25.442,21.906 25.442,21.906 C25.442,21.906 43.827,40.291 43.827,40.291 Z" id="path-1" fill-rule="evenodd"/>
</svg>
